<svg xmlns="http://www.w3.org/2000/svg" viewBox="0 0 500 500">
  <!-- Background -->
  <rect x="0" y="0" width="250" height="500" fill="#7cb342"/>
  <rect x="250" y="0" width="250" height="500" fill="#546e7a"/>

  <!-- Farmland side (left) -->
  <!-- Field rows -->
  <line x1="20" y1="320" x2="230" y2="320" stroke="#558b2f" stroke-width="15" opacity="0.6"/>
  <line x1="20" y1="350" x2="230" y2="350" stroke="#689f38" stroke-width="15" opacity="0.6"/>
  <line x1="20" y1="380" x2="230" y2="380" stroke="#558b2f" stroke-width="15" opacity="0.6"/>
  <line x1="20" y1="410" x2="230" y2="410" stroke="#689f38" stroke-width="15" opacity="0.6"/>
  <line x1="20" y1="440" x2="230" y2="440" stroke="#558b2f" stroke-width="15" opacity="0.6"/>

  <!-- Barn -->
  <polygon points="80,240 120,200 160,240" fill="#c62828"/>
  <rect x="80" y="240" width="80" height="60" fill="#d32f2f"/>
  <rect x="110" y="260" width="20" height="40" fill="#5d4037"/>

  <!-- Tree -->
  <rect x="190" y="260" width="15" height="40" fill="#5d4037"/>
  <circle cx="197.5" cy="250" r="25" fill="#2e7d32"/>

  <!-- City side (right) -->
  <!-- Buildings -->
  <rect x="270" y="220" width="50" height="280" fill="#37474f"/>
  <rect x="330" y="180" width="60" height="320" fill="#455a64"/>
  <rect x="400" y="240" width="45" height="260" fill="#37474f"/>
  <rect x="455" y="200" width="35" height="300" fill="#455a64"/>

  <!-- Windows -->
  <g fill="#ffd54f" opacity="0.7">
    <!-- Building 1 -->
    <rect x="280" y="240" width="12" height="15"/>
    <rect x="280" y="270" width="12" height="15"/>
    <rect x="280" y="300" width="12" height="15"/>
    <rect x="280" y="330" width="12" height="15"/>
    <rect x="280" y="360" width="12" height="15"/>
    <rect x="280" y="390" width="12" height="15"/>
    <rect x="298" y="240" width="12" height="15"/>
    <rect x="298" y="270" width="12" height="15"/>
    <rect x="298" y="300" width="12" height="15"/>
    <rect x="298" y="330" width="12" height="15"/>
    <rect x="298" y="360" width="12" height="15"/>
    <rect x="298" y="390" width="12" height="15"/>

    <!-- Building 2 -->
    <rect x="345" y="200" width="12" height="15"/>
    <rect x="345" y="230" width="12" height="15"/>
    <rect x="345" y="260" width="12" height="15"/>
    <rect x="345" y="290" width="12" height="15"/>
    <rect x="345" y="320" width="12" height="15"/>
    <rect x="345" y="350" width="12" height="15"/>
    <rect x="345" y="380" width="12" height="15"/>
    <rect x="363" y="200" width="12" height="15"/>
    <rect x="363" y="230" width="12" height="15"/>
    <rect x="363" y="260" width="12" height="15"/>
    <rect x="363" y="290" width="12" height="15"/>
    <rect x="363" y="320" width="12" height="15"/>
    <rect x="363" y="350" width="12" height="15"/>
    <rect x="363" y="380" width="12" height="15"/>
  </g>

  <!-- Dividing line -->
  <line x1="250" y1="0" x2="250" y2="500" stroke="#ffffff" stroke-width="3" opacity="0.3"/>
</svg>
